<svg xmlns="http://www.w3.org/2000/svg" viewBox="0 0 24 24">
  <path d="M3 6.6a1.9 1.9 0 0 1 1.9-1.9h3.7c.52 0 1.02.22 1.37.6l1.33 1.45h6.5A1.9 1.9 0 0 1 21 8.65V12H3z" fill="#e0962f"/>
  <path d="M3 9.4a1.9 1.9 0 0 1 1.9-1.9h14.2A1.9 1.9 0 0 1 21 9.4v7.7a1.9 1.9 0 0 1-1.9 1.9H4.9A1.9 1.9 0 0 1 3 17.1z" fill="#f6b541"/>
  <circle cx="13.7" cy="12.6" r="1.0" fill="#ffffff" opacity="0.8"/>
  <path d="M12.4 16.7c0-1.35.95-2.2 2.1-2.2.6 0 1.1.2 1.5.55z" fill="#ffffff" opacity="0.8"/>
  <circle cx="10.4" cy="12.3" r="1.25" fill="#ffffff"/>
  <path d="M7.8 16.7c0-1.55 1.15-2.55 2.6-2.55s2.6 1.0 2.6 2.55z" fill="#ffffff"/>
</svg>
