<svg xmlns="http://www.w3.org/2000/svg" viewBox="0 0 24 24">
  <path d="M3 6.6a1.9 1.9 0 0 1 1.9-1.9h3.7c.52 0 1.02.22 1.37.6l1.33 1.45h6.5A1.9 1.9 0 0 1 21 8.65V12H3z" fill="#e0962f"/>
  <path d="M3 9.4a1.9 1.9 0 0 1 1.9-1.9h14.2A1.9 1.9 0 0 1 21 9.4v7.7a1.9 1.9 0 0 1-1.9 1.9H4.9A1.9 1.9 0 0 1 3 17.1z" fill="#f6b541"/>
  <rect x="8.4" y="10.7" width="7.2" height="5.8" rx="0.8" fill="#ffffff"/>
  <circle cx="10.5" cy="12.7" r="1.0" fill="#f2a72a"/>
  <path d="M8.7 16.5v-1.2l2.0-2.2 1.5 1.6 2.2-2.5 1.2 1.4v2.9z" fill="#e98f2c"/>
</svg>
