<svg xmlns="http://www.w3.org/2000/svg" viewBox="0 0 24 24">
  <path d="M3 6.6a1.9 1.9 0 0 1 1.9-1.9h3.7c.52 0 1.02.22 1.37.6l1.33 1.45h6.5A1.9 1.9 0 0 1 21 8.65V12H3z" fill="#e0962f"/>
  <path d="M3 9.4a1.9 1.9 0 0 1 1.9-1.9h14.2A1.9 1.9 0 0 1 21 9.4v7.7a1.9 1.9 0 0 1-1.9 1.9H4.9A1.9 1.9 0 0 1 3 17.1z" fill="#f6b541"/>
  <rect x="8.2" y="10.7" width="7.6" height="4.9" rx="0.6" fill="#ffffff"/>
  <rect x="9.1" y="11.5" width="5.8" height="3.3" rx="0.3" fill="#e89a30"/>
  <path d="M10.7 15.6h2.6l.45 1.25h1.15v0.75H8.7v-0.75h1.15z" fill="#ffffff"/>
</svg>
