<svg xmlns="http://www.w3.org/2000/svg" viewBox="0 0 24 24">
  <path d="M3 6.6a1.9 1.9 0 0 1 1.9-1.9h3.7c.52 0 1.02.22 1.37.6l1.33 1.45h6.5A1.9 1.9 0 0 1 21 8.65V12H3z" fill="#e0962f"/>
  <path d="M3 9.4a1.9 1.9 0 0 1 1.9-1.9h14.2A1.9 1.9 0 0 1 21 9.4v7.7a1.9 1.9 0 0 1-1.9 1.9H4.9A1.9 1.9 0 0 1 3 17.1z" fill="#f6b541"/>
  <path d="M9.8 10.6h3.05l1.55 1.55v4.6a.6.6 0 0 1-.6.6h-4a.6.6 0 0 1-.6-.6v-5.55a.6.6 0 0 1 .6-.6z" fill="#ffffff"/>
  <path d="M12.85 10.6v1.55h1.55z" fill="#d98f2a"/>
  <path d="M10.6 13.9h3M10.6 15.3h2.2" stroke="#e89a30" stroke-width="0.7" stroke-linecap="round"/>
</svg>
