<svg xmlns="http://www.w3.org/2000/svg" viewBox="0 0 24 24">
  <path d="M6.2 3.6h7.0L18 8.0v10.9a1.6 1.6 0 0 1-1.6 1.6H6.2a1.6 1.6 0 0 1-1.6-1.6V5.2A1.6 1.6 0 0 1 6.2 3.6z" fill="#eef1f5" stroke="#d4dbe2" stroke-width="0.6"/>
  <path d="M13.2 3.6 18 8.0h-3.45A1.35 1.35 0 0 1 13.2 6.65z" fill="#cdd6df"/>
  <rect x="6.4" y="10.0" width="9.4" height="7.6" rx="1" fill="#34a853"/>
  <circle cx="9.0" cy="12.6" r="1.35" fill="#ffd34e"/>
  <path d="M6.7 17.0v-1.5l2.7-2.9 1.9 2.1 2.7-3.1 1.6 1.9v3.5z" fill="#ffffff"/>
</svg>
